<?xml version="1.0" encoding="UTF-8"?>
<svg version="1.1" viewBox="0 0 2048 993" width="1580" height="1580" xmlns="http://www.w3.org/2000/svg">
<path transform="translate(1525)" d="m0 0h24l1 1v17l-3 16-6 16-6 11-9 12-14 14-14 10-18 10-7 3-136 1-24 11-19 10-19 12-18 13-13 11-8 7-20 20-13 17-10 15-11 21-8 21-6 25-3 26v25l3 26 5 23 8 24 11 24 10 17 10 14 9 11 11 12 7 7 11 9 14 10 17 10 20 9 20 6 20 4 18 2v-218h357l1 1v52l-3 22-7 28-9 25-11 24-12 21-13 19-11 14-12 14-25 25-11 9-18 14-15 10-18 11-22 12-21 10-27 11-14 5h-155l-20-6-25-9-26-12-19-10-21-13-17-12-16-13-14-12-19-19-9-11-10-12-16-24-12-21-9-19-10-27-7-25-6-31-3-26-1-13-16 47-15 43-34 98-15 43-19 55-12 34h-39l-7-14-15-33-17-36-15-33-18-38-15-33-17-36-26-56-18-39-15-32-12-26-38-82-15-32-15-33-18-38-24-52-17-2-14-4-14-7-12-9-8-7-11-14-3-5v-2h202l8 16 14 29 13 28 15 31 13 28 15 31 13 28 16 33 13 28 15 31 13 28 14 29 13 28 15 31 13 28 16 33 2 7h12l3-9 19-50 44-114 18-47 10-26 11-24 12-23 16-26 13-18 10-13 11-13 11-12 17-17 11-9 12-10 24-16 18-10 21-10 25-9 28-7 28-4 87-2z" fill="#E68C22"/>
<path transform="translate(539,4)" d="m0 0h202l8 16 14 29 13 28 15 31 13 28 15 31 13 28 16 33 13 28 15 31 13 28 14 29 13 28 15 31 13 28 16 33 2 7h12l3-9 19-50 44-114 17-44 2-2-2 20-2 21-1 19v33l-15 43-18 52-15 43-18 52-15 43-19 55-12 34h-39l-7-14-15-33-17-36-15-33-18-38-15-33-17-36-26-56-18-39-15-32-12-26-38-82-15-32-15-33-18-38-24-52-17-2-14-4-14-7-12-9-8-7-11-14-3-5z" fill="#2F2118"/>
<path transform="translate(613,130)" d="m0 0 4 5 12 23 12 22 39 72 18 33v276h-18l-1-258-12-11-11-9-10-9-13-1v288h-20z" fill="#322218"/>
<path transform="translate(0,853)" d="m0 0h40l4 8 23 57 12 29 21-52 17-42h40v138l-1 1h-32l-1-1-1-77-18 48-11 29-1 1h-26l-3-5-26-69-2-5-1 78-1 1h-32l-1-1z" fill="#312218"/>
<path transform="translate(378,853)" d="m0 0h34l8 11 16 25 20 30 11 17 1-83h34v139h-33l-7-9-15-23-29-44-5-7-1 82-1 1h-32l-1-1z" fill="#312218"/>
<path transform="translate(1924,853)" d="m0 0h34l14 21 23 35 18 27 1-83h34v138l-1 1h-32l-4-4-52-79-1 82-1 1h-33z" fill="#E68C22"/>
<path transform="translate(1422,851)" d="m0 0 18 1 12 3 14 7 10 8 8 11 5 11 1 5h-38l-4-6-8-5-6-2h-17l-11 4-9 8-5 10-2 10v13l3 12 6 10 8 6 10 4 14 1 10-2 9-5 7-8 4-9h-42v-25h73v34l-8 16-9 11-12 9-13 6-12 3-16 1-15-2-12-4-10-5-10-8-8-9-8-15-4-16v-24l4-16 8-15 11-12 14-9 14-5z" fill="#E68C22"/>
<path transform="translate(790,851)" d="m0 0h18l17 4 14 7 10 8 8 9 7 12 5 16 1 8v14l-3 15-5 12-7 11-7 8-11 8-15 7-14 3h-18l-14-3-14-6-11-8-8-8-9-14-5-15-1-5v-25l4-14 6-12 7-9 8-8 13-8 13-5zm0 31-10 4-8 6-6 9-3 9-1 6v12l3 12 4 8 8 8 10 5 5 1h14l11-4 8-6 7-10 3-10v-20l-4-12-6-8-7-6-11-4z" fill="#302218"/>
<path transform="translate(933,853)" d="m0 0h67l16 4 10 6 8 8 5 10 2 8v15l-3 10-6 10-8 7-10 5h-3l6 11 15 26 10 17v2h-37l-4-5-14-26-12-21h-7l-1 52h-33l-1-1zm34 28v34h28l6-3 4-5 2-6-1-10-4-6-5-3-4-1z" fill="#332318"/>
<path transform="translate(1774,853)" d="m0 0h40l21 58 22 61 6 16v4h-35l-4-10-4-12v-3l-52 1-8 23-1 1h-34l-1-2 11-30 21-58zm19 39-14 41-2 8h34l-16-48z" fill="#E68C22"/>
<path transform="translate(1505,176)" d="m0 0h10l14 3 12 6 12 11 6 9 5 12 1 4v22l-4 12-6 10-8 9-12 8-11 4-5 1h-18l-13-4-11-6-9-8-7-10-5-12-1-5v-21l4-12 5-9 9-10 8-6 13-6z" fill="#E68C22"/>
<path transform="translate(1145,851)" d="m0 0h18l14 3 14 7 8 8 5 10 2 7v7h-36l-5-10-4-3-4-1h-8l-6 3-3 7 1 7 1 3 4 2 20 8 16 6 10 5 9 8 5 8 2 8v13l-4 12-8 11-10 7-10 4-10 2h-18l-17-4-11-6-8-7-6-10-3-12v-4h36l4 9 4 4 6 2h7l8-3 3-4v-10l-4-5-10-5-29-10-9-5-8-7-5-8-2-6v-19l4-11 9-10 10-6 8-3z" fill="#312218"/>
<path transform="translate(226,853)" d="m0 0h85v27h-51v28h45v26h-45v30h51v28h-84l-1-1z" fill="#342418"/>
<path transform="translate(1545,853)" d="m0 0h39l26 56 8-16 15-33 4-7h38l-8 16-23 45-10 19-6 11-1 47-1 1h-32l-1-1-1-46-21-41-14-27-12-23z" fill="#E68C22"/>
<path transform="translate(564,853)" d="m0 0h107v27h-36v111l-1 1h-32l-1-1v-111h-37z" fill="#2F2118"/>
<path transform="translate(613,571)" d="m0 0h84l1 1v15l-14 21-19 28-2 2h-17l-8-11-12-19-13-20z" fill="#332318"/>
<path transform="translate(646,324)" d="m0 0 7 6 10 9v214h-17z" fill="#2F2118"/>
<path transform="translate(647,646)" d="m0 0h17v11l-1 1h-16z" fill="#472F19"/>
</svg>
